<svg width="256" height="256" viewBox="0 0 256 256" fill="none" xmlns="http://www.w3.org/2000/svg">
<path opacity="0.5" d="M128 234.667C186.91 234.667 234.666 186.91 234.666 128C234.666 69.0896 186.91 21.3333 128 21.3333C69.0893 21.3333 21.333 69.0896 21.333 128C21.333 186.91 69.0893 234.667 128 234.667Z" fill="#4A2173" stroke="black" stroke-width="0.00256"/>
<path d="M143.873 68.7564C148.141 69.8998 150.673 74.2866 149.529 78.5543L121.922 181.586C120.778 185.854 116.391 188.387 112.123 187.244C107.856 186.099 105.323 181.713 106.467 177.445L134.074 74.4132C135.218 70.1455 139.605 67.6128 143.873 68.7564Z" fill="#4A2173" stroke="black" stroke-width="0.00256"/>
<path d="M159.676 90.3432C162.8 87.219 167.865 87.219 170.989 90.3432L173.212 92.5654C179.989 99.3419 185.64 104.993 189.523 110.082C193.622 115.454 196.496 121.13 196.496 128C196.496 134.87 193.622 140.546 189.523 145.918C185.64 151.007 179.989 156.658 173.212 163.435L170.989 165.657C167.865 168.781 162.8 168.781 159.676 165.657C156.552 162.532 156.552 157.468 159.676 154.343L161.506 152.513C168.777 145.242 173.65 140.346 176.803 136.212C179.815 132.265 180.496 129.966 180.496 128C180.496 126.034 179.815 123.735 176.803 119.788C173.65 115.654 168.777 110.758 161.506 103.487L159.676 101.657C156.552 98.5327 156.552 93.4674 159.676 90.3432Z" fill="#4A2173" stroke="black" stroke-width="0.00256"/>
<path d="M85.0116 90.3432C88.1357 87.219 93.201 87.219 96.3253 90.3432C99.4494 93.4674 99.4494 98.5327 96.3253 101.657L94.4951 103.487C87.2241 110.758 82.3519 115.654 79.1984 119.788C76.1858 123.735 75.5049 126.034 75.5049 128C75.5049 129.966 76.1858 132.265 79.1984 136.212C82.3519 140.346 87.2241 145.242 94.4951 152.513L96.3253 154.343C99.4494 157.468 99.4494 162.532 96.3253 165.657C93.201 168.781 88.1357 168.781 85.0116 165.657L82.7891 163.435C76.0122 156.658 70.3611 151.007 66.4781 145.918C62.3795 140.546 59.5049 134.87 59.5049 128C59.5049 121.13 62.3795 115.454 66.4781 110.082C70.3611 104.993 76.0122 99.342 82.7891 92.5654L85.0116 90.3432Z" fill="#4A2173" stroke="black" stroke-width="0.00256"/>
</svg>
